<?xml version="1.0" encoding="UTF-8" standalone="no"?>
<!DOCTYPE svg PUBLIC "-//W3C//DTD SVG 1.1//EN"
 "http://www.w3.org/Graphics/SVG/1.1/DTD/svg11.dtd">
<!-- Generated by graphviz version 2.43.0 (0)
 -->
<!-- Title: PersonSearch Pages: 1 -->
<svg width="975pt" height="2250pt"
 viewBox="0.00 0.00 975.00 2250.12" xmlns="http://www.w3.org/2000/svg" xmlns:xlink="http://www.w3.org/1999/xlink">
<g id="graph0" class="graph" transform="scale(1 1) rotate(0) translate(4 2246.12)">
<title>PersonSearch</title>
<polygon fill="white" stroke="transparent" points="-4,4 -4,-2246.12 971,-2246.12 971,4 -4,4"/>
<text text-anchor="middle" x="483.5" y="-2228.52" font-family="Helvetica,sans-Serif" font-size="12.00">SISTER — &quot;Person Search&quot; (Persona Fisica) workflow</text>
<text text-anchor="middle" x="483.5" y="-2215.52" font-family="Helvetica,sans-Serif" font-size="12.00">Rule: at every table, repeat the request for EACH row, unless that row&#39;s data is already extracted</text>
<g id="clust1" class="cluster">
<title>cluster_legend</title>
<polygon fill="none" stroke="#999999" stroke-dasharray="5,2" points="8,-1620.92 8,-2200.12 286,-2200.12 286,-1620.92 8,-1620.92"/>
<text text-anchor="middle" x="147" y="-2188.12" font-family="Helvetica,sans-Serif" font-size="10.00">Legend</text>
</g>
<!-- lg_page -->
<g id="node1" class="node">
<title>lg_page</title>
<path fill="#e8f0fe" stroke="black" d="M171.5,-2173.12C171.5,-2173.12 122.5,-2173.12 122.5,-2173.12 116.5,-2173.12 110.5,-2167.12 110.5,-2161.12 110.5,-2161.12 110.5,-2149.12 110.5,-2149.12 110.5,-2143.12 116.5,-2137.12 122.5,-2137.12 122.5,-2137.12 171.5,-2137.12 171.5,-2137.12 177.5,-2137.12 183.5,-2143.12 183.5,-2149.12 183.5,-2149.12 183.5,-2161.12 183.5,-2161.12 183.5,-2167.12 177.5,-2173.12 171.5,-2173.12"/>
<text text-anchor="middle" x="147" y="-2152.62" font-family="Helvetica,sans-Serif" font-size="10.00">page / form</text>
</g>
<!-- lg_act -->
<g id="node2" class="node">
<title>lg_act</title>
<polygon fill="#fff4e5" stroke="black" points="190.5,-2094.41 103.5,-2094.41 103.5,-2058.41 190.5,-2058.41 190.5,-2094.41"/>
<text text-anchor="middle" x="147" y="-2073.91" font-family="Helvetica,sans-Serif" font-size="10.00">button / action</text>
</g>
<!-- lg_page&#45;&gt;lg_act -->
<!-- lg_tab -->
<g id="node3" class="node">
<title>lg_tab</title>
<polygon fill="#fde7e9" stroke="black" points="205,-2018.91 89,-2018.91 89,-1982.91 205,-1982.91 205,-2018.91"/>
<text text-anchor="middle" x="147" y="-1998.41" font-family="Helvetica,sans-Serif" font-size="10.00">TABLE (iterate rows)</text>
</g>
<!-- lg_act&#45;&gt;lg_tab -->
<!-- lg_dec -->
<g id="node4" class="node">
<title>lg_dec</title>
<polygon fill="#fffde7" stroke="black" points="147,-1937.91 74.65,-1919.91 147,-1901.91 219.35,-1919.91 147,-1937.91"/>
<text text-anchor="middle" x="147" y="-1917.41" font-family="Helvetica,sans-Serif" font-size="10.00">decision / loop</text>
</g>
<!-- lg_tab&#45;&gt;lg_dec -->
<!-- lg_data -->
<g id="node5" class="node">
<title>lg_data</title>
<polygon fill="#e6f4ea" stroke="black" points="182.5,-1856.91 105.5,-1856.91 105.5,-1820.91 188.5,-1820.91 188.5,-1850.91 182.5,-1856.91"/>
<polyline fill="none" stroke="black" points="182.5,-1856.91 182.5,-1850.91 "/>
<polyline fill="none" stroke="black" points="188.5,-1850.91 182.5,-1850.91 "/>
<text text-anchor="middle" x="147" y="-1836.41" font-family="Helvetica,sans-Serif" font-size="10.00">artifact / data</text>
</g>
<!-- lg_dec&#45;&gt;lg_data -->
<!-- lg_cost -->
<g id="node6" class="node">
<title>lg_cost</title>
<path fill="#f3e5f5" stroke="black" d="M196,-1771.91C196,-1771.91 98,-1771.91 98,-1771.91 92,-1771.91 86,-1765.91 86,-1759.91 86,-1759.91 86,-1747.91 86,-1747.91 86,-1741.91 92,-1735.91 98,-1735.91 98,-1735.91 196,-1735.91 196,-1735.91 202,-1735.91 208,-1741.91 208,-1747.91 208,-1747.91 208,-1759.91 208,-1759.91 208,-1765.91 202,-1771.91 196,-1771.91"/>
<text text-anchor="middle" x="147" y="-1751.41" font-family="Helvetica,sans-Serif" font-size="10.00">BILLABLE + CAPTCHA</text>
</g>
<!-- lg_data&#45;&gt;lg_cost -->
<!-- lg_wait -->
<g id="node7" class="node">
<title>lg_wait</title>
<polygon fill="#ffcc80" stroke="black" points="278.41,-1653.41 212.71,-1677.9 81.29,-1677.9 15.59,-1653.41 81.29,-1628.92 212.71,-1628.92 278.41,-1653.41"/>
<text text-anchor="middle" x="147" y="-1656.41" font-family="Helvetica,sans-Serif" font-size="10.00">WAIT for user input</text>
<text text-anchor="middle" x="147" y="-1645.41" font-family="Helvetica,sans-Serif" font-size="10.00">(manual / human&#45;in&#45;the&#45;loop)</text>
</g>
<!-- lg_cost&#45;&gt;lg_wait -->
<!-- start -->
<g id="node8" class="node">
<title>start</title>
<ellipse fill="#d2e3fc" stroke="black" cx="445" cy="-2155.12" rx="130.22" ry="21.43"/>
<text text-anchor="middle" x="445" y="-2158.12" font-family="Helvetica,sans-Serif" font-size="10.00">Authenticated SISTER session</text>
<text text-anchor="middle" x="445" y="-2147.12" font-family="Helvetica,sans-Serif" font-size="10.00">(manual CIE/SPID via iampe login)</text>
</g>
<!-- scelta -->
<g id="node9" class="node">
<title>scelta</title>
<path fill="#e8f0fe" stroke="black" d="M531.5,-2096.91C531.5,-2096.91 358.5,-2096.91 358.5,-2096.91 352.5,-2096.91 346.5,-2090.91 346.5,-2084.91 346.5,-2084.91 346.5,-2067.91 346.5,-2067.91 346.5,-2061.91 352.5,-2055.91 358.5,-2055.91 358.5,-2055.91 531.5,-2055.91 531.5,-2055.91 537.5,-2055.91 543.5,-2061.91 543.5,-2067.91 543.5,-2067.91 543.5,-2084.91 543.5,-2084.91 543.5,-2090.91 537.5,-2096.91 531.5,-2096.91"/>
<text text-anchor="middle" x="445" y="-2084.91" font-family="Helvetica,sans-Serif" font-size="10.00">SceltaServizio.do</text>
<text text-anchor="middle" x="445" y="-2073.91" font-family="Helvetica,sans-Serif" font-size="10.00">select Provincia / NAZIONALE</text>
<text text-anchor="middle" x="445" y="-2062.91" font-family="Helvetica,sans-Serif" font-size="10.00">(select[name=listacom]) → [Applica]</text>
</g>
<!-- start&#45;&gt;scelta -->
<g id="edge7" class="edge">
<title>start&#45;&gt;scelta</title>
<path fill="none" stroke="black" d="M445,-2133.56C445,-2125.48 445,-2116.05 445,-2107.25"/>
<polygon fill="black" stroke="black" points="448.5,-2106.96 445,-2096.96 441.5,-2106.96 448.5,-2106.96"/>
</g>
<!-- pf -->
<g id="node10" class="node">
<title>pf</title>
<polygon fill="#fff4e5" stroke="black" points="500,-2018.91 390,-2018.91 390,-1982.91 500,-1982.91 500,-2018.91"/>
<text text-anchor="middle" x="445" y="-2003.91" font-family="Helvetica,sans-Serif" font-size="10.00">click left&#45;menu link</text>
<text text-anchor="middle" x="445" y="-1992.91" font-family="Helvetica,sans-Serif" font-size="10.00">&quot;Persona fisica&quot;</text>
</g>
<!-- scelta&#45;&gt;pf -->
<g id="edge8" class="edge">
<title>scelta&#45;&gt;pf</title>
<path fill="none" stroke="black" d="M445,-2055.71C445,-2047.61 445,-2038.08 445,-2029.32"/>
<polygon fill="black" stroke="black" points="448.5,-2029.15 445,-2019.15 441.5,-2029.15 448.5,-2029.15"/>
</g>
<!-- form -->
<g id="node11" class="node">
<title>form</title>
<path fill="#e8f0fe" stroke="black" d="M584,-1945.91C584,-1945.91 306,-1945.91 306,-1945.91 300,-1945.91 294,-1939.91 294,-1933.91 294,-1933.91 294,-1905.91 294,-1905.91 294,-1899.91 300,-1893.91 306,-1893.91 306,-1893.91 584,-1893.91 584,-1893.91 590,-1893.91 596,-1899.91 596,-1905.91 596,-1905.91 596,-1933.91 596,-1933.91 596,-1939.91 590,-1945.91 584,-1945.91"/>
<text text-anchor="middle" x="445" y="-1933.91" font-family="Helvetica,sans-Serif" font-size="10.00">DataRichiesta.do — Ricerca persona fisica</text>
<text text-anchor="middle" x="445" y="-1922.91" font-family="Helvetica,sans-Serif" font-size="10.00">1) check CF radio &#160;input[name=selDatiAna][value=CF_PF]</text>
<text text-anchor="middle" x="445" y="-1911.91" font-family="Helvetica,sans-Serif" font-size="10.00">2) fill &#160;input[name=cod_fisc_pf]</text>
<text text-anchor="middle" x="445" y="-1900.91" font-family="Helvetica,sans-Serif" font-size="10.00">3) [Ricerca]</text>
</g>
<!-- pf&#45;&gt;form -->
<g id="edge9" class="edge">
<title>pf&#45;&gt;form</title>
<path fill="none" stroke="black" d="M445,-1982.76C445,-1974.98 445,-1965.48 445,-1956.27"/>
<polygon fill="black" stroke="black" points="448.5,-1956.12 445,-1946.12 441.5,-1956.12 448.5,-1956.12"/>
</g>
<!-- omon -->
<g id="node12" class="node">
<title>omon</title>
<polygon fill="#fde7e9" stroke="black" points="567.5,-1856.91 322.5,-1856.91 322.5,-1820.91 567.5,-1820.91 567.5,-1856.91"/>
<text text-anchor="middle" x="445" y="-1841.91" font-family="Helvetica,sans-Serif" font-size="10.00">RicercaPF.do — TABLE &quot;Elenco Omonimi&quot;</text>
<text text-anchor="middle" x="445" y="-1830.91" font-family="Helvetica,sans-Serif" font-size="10.00">Cognome | Nome | Nascita | Luogo | Sesso | CF</text>
</g>
<!-- form&#45;&gt;omon -->
<g id="edge10" class="edge">
<title>form&#45;&gt;omon</title>
<path fill="none" stroke="black" d="M445,-1893.47C445,-1885.1 445,-1875.76 445,-1867.25"/>
<polygon fill="black" stroke="black" points="448.5,-1867.05 445,-1857.05 441.5,-1867.05 448.5,-1867.05"/>
</g>
<!-- omon_loop -->
<g id="node13" class="node">
<title>omon_loop</title>
<polygon fill="#fffde7" stroke="black" points="445,-1783.91 339,-1753.91 445,-1723.91 551,-1753.91 445,-1783.91"/>
<text text-anchor="middle" x="445" y="-1756.91" font-family="Helvetica,sans-Serif" font-size="10.00">for each omonimo</text>
<text text-anchor="middle" x="445" y="-1745.91" font-family="Helvetica,sans-Serif" font-size="10.00">(unless extracted)</text>
</g>
<!-- omon&#45;&gt;omon_loop -->
<g id="edge11" class="edge">
<title>omon&#45;&gt;omon_loop</title>
<path fill="none" stroke="black" d="M445,-1820.71C445,-1813.05 445,-1803.69 445,-1794.45"/>
<polygon fill="black" stroke="black" points="448.5,-1794.18 445,-1784.18 441.5,-1794.18 448.5,-1794.18"/>
</g>
<!-- omon_pick -->
<g id="node14" class="node">
<title>omon_pick</title>
<polygon fill="#fff4e5" stroke="black" points="521,-1671.41 369,-1671.41 369,-1635.41 521,-1635.41 521,-1671.41"/>
<text text-anchor="middle" x="445" y="-1650.91" font-family="Helvetica,sans-Serif" font-size="10.00">select row radio → [Ricerca]</text>
</g>
<!-- omon_loop&#45;&gt;omon_pick -->
<g id="edge12" class="edge">
<title>omon_loop&#45;&gt;omon_pick</title>
<path fill="none" stroke="black" d="M445,-1723.89C445,-1710.59 445,-1694.9 445,-1681.81"/>
<polygon fill="black" stroke="black" points="448.5,-1681.52 445,-1671.52 441.5,-1681.52 448.5,-1681.52"/>
<text text-anchor="middle" x="465" y="-1698.71" font-family="Helvetica,sans-Serif" font-size="9.00">next row</text>
</g>
<!-- prov -->
<g id="node15" class="node">
<title>prov</title>
<polygon fill="#fde7e9" stroke="black" points="571,-1591.92 319,-1591.92 319,-1555.92 571,-1555.92 571,-1591.92"/>
<text text-anchor="middle" x="445" y="-1576.92" font-family="Helvetica,sans-Serif" font-size="10.00">SceltaOmonimiPF.do — TABLE &quot;Elenco Province&quot;</text>
<text text-anchor="middle" x="445" y="-1565.92" font-family="Helvetica,sans-Serif" font-size="10.00">Provincia | Fabbricati | Terreni | Comuni</text>
</g>
<!-- omon_pick&#45;&gt;prov -->
<g id="edge13" class="edge">
<title>omon_pick&#45;&gt;prov</title>
<path fill="none" stroke="black" d="M445,-1635.21C445,-1625.48 445,-1613.09 445,-1602.07"/>
<polygon fill="black" stroke="black" points="448.5,-1602.07 445,-1592.07 441.5,-1602.07 448.5,-1602.07"/>
</g>
<!-- prov&#45;&gt;omon -->
<g id="edge37" class="edge">
<title>prov&#45;&gt;omon</title>
<path fill="none" stroke="#7f7f7f" stroke-dasharray="5,2" d="M492.13,-1592.12C506,-1599.18 520.09,-1608.64 530,-1620.92 576.26,-1678.23 599.49,-1721.73 560,-1783.91 550.99,-1798.09 537.16,-1808.61 522.17,-1816.4"/>
<polygon fill="#7f7f7f" stroke="#7f7f7f" points="520.24,-1813.44 512.72,-1820.9 523.26,-1819.76 520.24,-1813.44"/>
<text text-anchor="middle" x="596" y="-1698.71" font-family="Helvetica,sans-Serif" font-size="9.00">Indietro</text>
</g>
<!-- prov_loop -->
<g id="node16" class="node">
<title>prov_loop</title>
<polygon fill="#fffde7" stroke="black" points="445,-1518.92 340,-1488.92 445,-1458.92 550,-1488.92 445,-1518.92"/>
<text text-anchor="middle" x="445" y="-1491.92" font-family="Helvetica,sans-Serif" font-size="10.00">for each provincia</text>
<text text-anchor="middle" x="445" y="-1480.92" font-family="Helvetica,sans-Serif" font-size="10.00">(unless extracted)</text>
</g>
<!-- prov&#45;&gt;prov_loop -->
<g id="edge14" class="edge">
<title>prov&#45;&gt;prov_loop</title>
<path fill="none" stroke="black" d="M445,-1555.72C445,-1548.06 445,-1538.7 445,-1529.46"/>
<polygon fill="black" stroke="black" points="448.5,-1529.19 445,-1519.19 441.5,-1529.19 448.5,-1529.19"/>
</g>
<!-- prov_pick -->
<g id="node17" class="node">
<title>prov_pick</title>
<polygon fill="#fff4e5" stroke="black" points="525,-1412.92 365,-1412.92 365,-1376.92 525,-1376.92 525,-1412.92"/>
<text text-anchor="middle" x="445" y="-1392.42" font-family="Helvetica,sans-Serif" font-size="10.00">select row radio → [Immobili]</text>
</g>
<!-- prov_loop&#45;&gt;prov_pick -->
<g id="edge15" class="edge">
<title>prov_loop&#45;&gt;prov_pick</title>
<path fill="none" stroke="black" d="M445,-1458.81C445,-1447.4 445,-1434.38 445,-1423.16"/>
<polygon fill="black" stroke="black" points="448.5,-1423.06 445,-1413.06 441.5,-1423.06 448.5,-1423.06"/>
<text text-anchor="middle" x="465" y="-1433.72" font-family="Helvetica,sans-Serif" font-size="9.00">next row</text>
</g>
<!-- imm -->
<g id="node18" class="node">
<title>imm</title>
<polygon fill="#fde7e9" stroke="black" points="644,-1339.92 246,-1339.92 246,-1303.92 644,-1303.92 644,-1339.92"/>
<text text-anchor="middle" x="445" y="-1324.92" font-family="Helvetica,sans-Serif" font-size="10.00">SceltaVisuraNazionalePF.do — TABLE &quot;Elenco immobili&quot;</text>
<text text-anchor="middle" x="445" y="-1313.92" font-family="Helvetica,sans-Serif" font-size="10.00">Catasto | Titolarità | Ubicazione | Foglio | Part. | Sub | Classamento | Rendita …</text>
</g>
<!-- prov_pick&#45;&gt;imm -->
<g id="edge16" class="edge">
<title>prov_pick&#45;&gt;imm</title>
<path fill="none" stroke="black" d="M445,-1376.73C445,-1368.71 445,-1358.96 445,-1349.98"/>
<polygon fill="black" stroke="black" points="448.5,-1349.94 445,-1339.94 441.5,-1349.94 448.5,-1349.94"/>
</g>
<!-- imm&#45;&gt;prov -->
<g id="edge36" class="edge">
<title>imm&#45;&gt;prov</title>
<path fill="none" stroke="#7f7f7f" stroke-dasharray="5,2" d="M486.46,-1340.02C503.32,-1348.82 521.69,-1361.08 534,-1376.92 573.32,-1427.51 593.27,-1464.77 559,-1518.92 550.08,-1533.01 536.37,-1543.5 521.51,-1551.28"/>
<polygon fill="#7f7f7f" stroke="#7f7f7f" points="519.64,-1548.3 512.15,-1555.79 522.68,-1554.61 519.64,-1548.3"/>
<text text-anchor="middle" x="590" y="-1433.72" font-family="Helvetica,sans-Serif" font-size="9.00">Indietro</text>
</g>
<!-- imm_loop -->
<g id="node19" class="node">
<title>imm_loop</title>
<polygon fill="#fffde7" stroke="black" points="445,-1266.92 339,-1236.92 445,-1206.92 551,-1236.92 445,-1266.92"/>
<text text-anchor="middle" x="445" y="-1239.92" font-family="Helvetica,sans-Serif" font-size="10.00">for each immobile</text>
<text text-anchor="middle" x="445" y="-1228.92" font-family="Helvetica,sans-Serif" font-size="10.00">(unless extracted)</text>
</g>
<!-- imm&#45;&gt;imm_loop -->
<g id="edge17" class="edge">
<title>imm&#45;&gt;imm_loop</title>
<path fill="none" stroke="black" d="M445,-1303.72C445,-1296.06 445,-1286.7 445,-1277.46"/>
<polygon fill="black" stroke="black" points="448.5,-1277.19 445,-1267.19 441.5,-1277.19 448.5,-1277.19"/>
</g>
<!-- imm_pick -->
<g id="node20" class="node">
<title>imm_pick</title>
<polygon fill="#fff4e5" stroke="black" points="492.5,-1160.92 397.5,-1160.92 397.5,-1124.92 492.5,-1124.92 492.5,-1160.92"/>
<text text-anchor="middle" x="445" y="-1140.42" font-family="Helvetica,sans-Serif" font-size="10.00">select row radio</text>
</g>
<!-- imm_loop&#45;&gt;imm_pick -->
<g id="edge18" class="edge">
<title>imm_loop&#45;&gt;imm_pick</title>
<path fill="none" stroke="black" d="M445,-1206.81C445,-1195.4 445,-1182.38 445,-1171.16"/>
<polygon fill="black" stroke="black" points="448.5,-1171.06 445,-1161.06 441.5,-1171.06 448.5,-1171.06"/>
<text text-anchor="middle" x="465" y="-1181.72" font-family="Helvetica,sans-Serif" font-size="9.00">next row</text>
</g>
<!-- imm_branch -->
<g id="node21" class="node">
<title>imm_branch</title>
<polygon fill="#fffde7" stroke="black" points="445,-1087.92 374.48,-1069.92 445,-1051.92 515.52,-1069.92 445,-1087.92"/>
<text text-anchor="middle" x="445" y="-1067.42" font-family="Helvetica,sans-Serif" font-size="10.00">which output?</text>
</g>
<!-- imm_pick&#45;&gt;imm_branch -->
<g id="edge19" class="edge">
<title>imm_pick&#45;&gt;imm_branch</title>
<path fill="none" stroke="black" d="M445,-1124.73C445,-1116.71 445,-1106.96 445,-1097.98"/>
<polygon fill="black" stroke="black" points="448.5,-1097.94 445,-1087.94 441.5,-1097.94 448.5,-1097.94"/>
</g>
<!-- optV -->
<g id="node22" class="node">
<title>optV</title>
<path fill="#f3e5f5" stroke="black" d="M835.5,-1005.92C835.5,-1005.92 428.5,-1005.92 428.5,-1005.92 422.5,-1005.92 416.5,-999.92 416.5,-993.92 416.5,-993.92 416.5,-981.92 416.5,-981.92 416.5,-975.92 422.5,-969.92 428.5,-969.92 428.5,-969.92 835.5,-969.92 835.5,-969.92 841.5,-969.92 847.5,-975.92 847.5,-981.92 847.5,-981.92 847.5,-993.92 847.5,-993.92 847.5,-999.92 841.5,-1005.92 835.5,-1005.92"/>
<text text-anchor="middle" x="632" y="-990.92" font-family="Helvetica,sans-Serif" font-size="10.00">SceltaVisuraImmSoggPF.do — &quot;Tipo di visura&quot;</text>
<text text-anchor="middle" x="632" y="-979.92" font-family="Helvetica,sans-Serif" font-size="10.00">set options: intestati(1/0) · tipoVisura(Completa/Storica) · tipoDocFornitura(PDF/XML)</text>
</g>
<!-- imm_branch&#45;&gt;optV -->
<g id="edge20" class="edge">
<title>imm_branch&#45;&gt;optV</title>
<path fill="none" stroke="black" d="M470.22,-1058.13C498.96,-1045.83 546.61,-1025.45 582.78,-1009.97"/>
<polygon fill="black" stroke="black" points="584.36,-1013.1 592.17,-1005.95 581.6,-1006.67 584.36,-1013.1"/>
<text text-anchor="middle" x="594.5" y="-1026.72" font-family="Helvetica,sans-Serif" font-size="9.00">Visura Per Immobile</text>
</g>
<!-- intes -->
<g id="node23" class="node">
<title>intes</title>
<polygon fill="#fde7e9" stroke="black" points="398,-1005.92 156,-1005.92 156,-969.92 398,-969.92 398,-1005.92"/>
<text text-anchor="middle" x="277" y="-990.92" font-family="Helvetica,sans-Serif" font-size="10.00">TABLE &quot;Elenco Intestati&quot;</text>
<text text-anchor="middle" x="277" y="-979.92" font-family="Helvetica,sans-Serif" font-size="10.00">Nominativo | Codice fiscale | Titolarità | Quota</text>
</g>
<!-- imm_branch&#45;&gt;intes -->
<g id="edge21" class="edge">
<title>imm_branch&#45;&gt;intes</title>
<path fill="none" stroke="black" d="M421.64,-1057.79C395.96,-1045.56 354.07,-1025.62 321.97,-1010.33"/>
<polygon fill="black" stroke="black" points="323.31,-1007.09 312.78,-1005.95 320.3,-1013.41 323.31,-1007.09"/>
<text text-anchor="middle" x="390" y="-1026.72" font-family="Helvetica,sans-Serif" font-size="9.00">Intestati</text>
</g>
<!-- cap_req -->
<g id="node27" class="node">
<title>cap_req</title>
<polygon fill="#fffde7" stroke="black" points="587,-680.92 525,-650.92 587,-620.92 649,-650.92 587,-680.92"/>
<text text-anchor="middle" x="587" y="-653.92" font-family="Helvetica,sans-Serif" font-size="10.00">CAPTCHA</text>
<text text-anchor="middle" x="587" y="-642.92" font-family="Helvetica,sans-Serif" font-size="10.00">required?</text>
</g>
<!-- optV&#45;&gt;cap_req -->
<g id="edge25" class="edge">
<title>optV&#45;&gt;cap_req</title>
<path fill="none" stroke="black" d="M631.35,-969.75C630.76,-952.97 630,-926.69 630,-903.92 630,-903.92 630,-903.92 630,-734.92 630,-715.52 620.62,-696.14 610.63,-680.99"/>
<polygon fill="black" stroke="black" points="613.35,-678.77 604.74,-672.59 607.61,-682.79 613.35,-678.77"/>
</g>
<!-- intes&#45;&gt;imm -->
<g id="edge38" class="edge">
<title>intes&#45;&gt;imm</title>
<path fill="none" stroke="#7f7f7f" stroke-dasharray="5,2" d="M398.31,-1004.89C401.57,-1005.24 404.81,-1005.59 408,-1005.92 434.16,-1008.61 626.13,-1004.63 644,-1023.92 679.96,-1062.72 600.44,-1075.71 581,-1124.92 557.56,-1184.25 598.06,-1215.72 560,-1266.92 549.44,-1281.12 534.2,-1291.73 518.25,-1299.59"/>
<polygon fill="#7f7f7f" stroke="#7f7f7f" points="516.44,-1296.57 508.81,-1303.91 519.36,-1302.94 516.44,-1296.57"/>
<text text-anchor="middle" x="623" y="-1140.72" font-family="Helvetica,sans-Serif" font-size="9.00">Immobili / Indietro</text>
</g>
<!-- intes_loop -->
<g id="node24" class="node">
<title>intes_loop</title>
<polygon fill="#fffde7" stroke="black" points="413,-932.92 308,-902.92 413,-872.92 518,-902.92 413,-932.92"/>
<text text-anchor="middle" x="413" y="-905.92" font-family="Helvetica,sans-Serif" font-size="10.00">for each intestato</text>
<text text-anchor="middle" x="413" y="-894.92" font-family="Helvetica,sans-Serif" font-size="10.00">(unless extracted)</text>
</g>
<!-- intes&#45;&gt;intes_loop -->
<g id="edge22" class="edge">
<title>intes&#45;&gt;intes_loop</title>
<path fill="none" stroke="black" d="M305.18,-969.72C324.46,-957.95 350.34,-942.15 371.91,-928.99"/>
<polygon fill="black" stroke="black" points="373.84,-931.91 380.56,-923.72 370.2,-925.94 373.84,-931.91"/>
</g>
<!-- intes_pick -->
<g id="node25" class="node">
<title>intes_pick</title>
<polygon fill="#fff4e5" stroke="black" points="553,-826.92 341,-826.92 341,-790.92 553,-790.92 553,-826.92"/>
<text text-anchor="middle" x="447" y="-806.42" font-family="Helvetica,sans-Serif" font-size="10.00">select row radio → [Visura per Soggetto]</text>
</g>
<!-- intes_loop&#45;&gt;intes_pick -->
<g id="edge23" class="edge">
<title>intes_loop&#45;&gt;intes_pick</title>
<path fill="none" stroke="black" d="M422.83,-875.31C427.31,-863.2 432.59,-848.9 437.08,-836.76"/>
<polygon fill="black" stroke="black" points="440.44,-837.77 440.62,-827.18 433.87,-835.34 440.44,-837.77"/>
<text text-anchor="middle" x="454" y="-847.72" font-family="Helvetica,sans-Serif" font-size="9.00">next row</text>
</g>
<!-- optS -->
<g id="node26" class="node">
<title>optS</title>
<path fill="#f3e5f5" stroke="black" d="M589,-753.92C589,-753.92 323,-753.92 323,-753.92 317,-753.92 311,-747.92 311,-741.92 311,-741.92 311,-729.92 311,-729.92 311,-723.92 317,-717.92 323,-717.92 323,-717.92 589,-717.92 589,-717.92 595,-717.92 601,-723.92 601,-729.92 601,-729.92 601,-741.92 601,-741.92 601,-747.92 595,-753.92 589,-753.92"/>
<text text-anchor="middle" x="456" y="-738.92" font-family="Helvetica,sans-Serif" font-size="10.00">SceltaIntestatiPF.do / TipoVisura.do — &quot;Visura soggetto&quot;</text>
<text text-anchor="middle" x="456" y="-727.92" font-family="Helvetica,sans-Serif" font-size="10.00">set options: intestati · Sintetica/Analitica · PDF/XML</text>
</g>
<!-- intes_pick&#45;&gt;optS -->
<g id="edge24" class="edge">
<title>intes_pick&#45;&gt;optS</title>
<path fill="none" stroke="black" d="M449.18,-790.73C450.2,-782.71 451.43,-772.96 452.57,-763.98"/>
<polygon fill="black" stroke="black" points="456.06,-764.31 453.84,-753.94 449.11,-763.42 456.06,-764.31"/>
</g>
<!-- optS&#45;&gt;cap_req -->
<g id="edge26" class="edge">
<title>optS&#45;&gt;cap_req</title>
<path fill="none" stroke="black" d="M483.14,-717.72C503.17,-705.03 530.58,-687.67 552.21,-673.96"/>
<polygon fill="black" stroke="black" points="554.21,-676.83 560.79,-668.52 550.46,-670.92 554.21,-676.83"/>
</g>
<!-- cap_wait -->
<g id="node28" class="node">
<title>cap_wait</title>
<polygon fill="#ffcc80" stroke="black" points="594.98,-532.46 525.99,-574.87 388.01,-574.87 319.02,-532.46 388.01,-490.04 525.99,-490.04 594.98,-532.46"/>
<text text-anchor="middle" x="457" y="-546.46" font-family="Helvetica,sans-Serif" font-size="10.00">WAIT for user to enter</text>
<text text-anchor="middle" x="457" y="-535.46" font-family="Helvetica,sans-Serif" font-size="10.00">&quot;Codice di sicurezza&quot;</text>
<text text-anchor="middle" x="457" y="-524.46" font-family="Helvetica,sans-Serif" font-size="10.00">(input[name=inCaptchaChars])</text>
<text text-anchor="middle" x="457" y="-513.46" font-family="Helvetica,sans-Serif" font-size="10.00">— pause until provided —</text>
</g>
<!-- cap_req&#45;&gt;cap_wait -->
<g id="edge27" class="edge">
<title>cap_req&#45;&gt;cap_wait</title>
<path fill="none" stroke="black" d="M565.82,-630.95C550.9,-617.57 530.2,-599.03 510.86,-581.71"/>
<polygon fill="black" stroke="black" points="513.03,-578.95 503.25,-574.89 508.36,-584.17 513.03,-578.95"/>
<text text-anchor="middle" x="541" y="-595.72" font-family="Helvetica,sans-Serif" font-size="9.00">yes</text>
</g>
<!-- inoltra -->
<g id="node29" class="node">
<title>inoltra</title>
<polygon fill="#fff4e5" stroke="black" points="610,-444 554,-444 554,-408 610,-408 610,-444"/>
<text text-anchor="middle" x="582" y="-423.5" font-family="Helvetica,sans-Serif" font-size="10.00">[Inoltra]</text>
</g>
<!-- cap_req&#45;&gt;inoltra -->
<g id="edge28" class="edge">
<title>cap_req&#45;&gt;inoltra</title>
<path fill="none" stroke="black" d="M598.57,-626.42C614.86,-589.88 640.14,-517.86 617,-462 615.53,-458.46 613.51,-455.09 611.18,-451.93"/>
<polygon fill="black" stroke="black" points="613.62,-449.41 604.43,-444.14 608.33,-453.99 613.62,-449.41"/>
<text text-anchor="middle" x="632" y="-530.26" font-family="Helvetica,sans-Serif" font-size="9.00">no</text>
</g>
<!-- cap_wait&#45;&gt;inoltra -->
<g id="edge29" class="edge">
<title>cap_wait&#45;&gt;inoltra</title>
<path fill="none" stroke="black" d="M492.94,-489.87C502.25,-480.19 512.6,-470.3 523,-462 529.83,-456.56 537.58,-451.36 545.17,-446.72"/>
<polygon fill="black" stroke="black" points="547.12,-449.63 553.95,-441.54 543.56,-443.61 547.12,-449.63"/>
<text text-anchor="middle" x="570" y="-464.8" font-family="Helvetica,sans-Serif" font-size="9.00">user submitted code</text>
</g>
<!-- cap_ok -->
<g id="node30" class="node">
<title>cap_ok</title>
<polygon fill="#fffde7" stroke="black" points="469,-371 403,-341 469,-311 535,-341 469,-371"/>
<text text-anchor="middle" x="469" y="-344" font-family="Helvetica,sans-Serif" font-size="10.00">CAPTCHA</text>
<text text-anchor="middle" x="469" y="-333" font-family="Helvetica,sans-Serif" font-size="10.00">accepted?</text>
</g>
<!-- inoltra&#45;&gt;cap_ok -->
<g id="edge30" class="edge">
<title>inoltra&#45;&gt;cap_ok</title>
<path fill="none" stroke="black" d="M558.59,-407.8C542.25,-395.81 520.22,-379.63 502.1,-366.31"/>
<polygon fill="black" stroke="black" points="503.69,-363.14 493.56,-360.04 499.54,-368.78 503.69,-363.14"/>
</g>
<!-- cap_ok&#45;&gt;cap_wait -->
<g id="edge32" class="edge">
<title>cap_ok&#45;&gt;cap_wait</title>
<path fill="none" stroke="#c62828" d="M467.21,-370.29C465.38,-399.12 462.51,-444.49 460.27,-479.76"/>
<polygon fill="#c62828" stroke="#c62828" points="456.77,-479.68 459.63,-489.88 463.76,-480.12 456.77,-479.68"/>
<text text-anchor="middle" x="503.5" y="-428.8" font-family="Helvetica,sans-Serif" font-size="9.00" fill="#c62828">no — new image,</text>
<text text-anchor="middle" x="503.5" y="-418.8" font-family="Helvetica,sans-Serif" font-size="9.00" fill="#c62828">wait again</text>
</g>
<!-- ready -->
<g id="node31" class="node">
<title>ready</title>
<path fill="#e8f0fe" stroke="black" d="M560.5,-265C560.5,-265 377.5,-265 377.5,-265 371.5,-265 365.5,-259 365.5,-253 365.5,-253 365.5,-241 365.5,-241 365.5,-235 371.5,-229 377.5,-229 377.5,-229 560.5,-229 560.5,-229 566.5,-229 572.5,-235 572.5,-241 572.5,-241 572.5,-253 572.5,-253 572.5,-259 566.5,-265 560.5,-265"/>
<text text-anchor="middle" x="469" y="-250" font-family="Helvetica,sans-Serif" font-size="10.00">CheckRichiesta — &quot;Documento pronto&quot;</text>
<text text-anchor="middle" x="469" y="-239" font-family="Helvetica,sans-Serif" font-size="10.00">(also kept 1 week under &quot;Richieste&quot;)</text>
</g>
<!-- cap_ok&#45;&gt;ready -->
<g id="edge31" class="edge">
<title>cap_ok&#45;&gt;ready</title>
<path fill="none" stroke="black" d="M469,-310.89C469,-299.48 469,-286.46 469,-275.24"/>
<polygon fill="black" stroke="black" points="472.5,-275.14 469,-265.14 465.5,-275.14 472.5,-275.14"/>
<text text-anchor="middle" x="477" y="-285.8" font-family="Helvetica,sans-Serif" font-size="9.00">yes</text>
</g>
<!-- ready&#45;&gt;imm -->
<g id="edge39" class="edge">
<title>ready&#45;&gt;imm</title>
<path fill="none" stroke="#7f7f7f" stroke-dasharray="5,2" d="M498.55,-265.05C541.75,-291.18 622.56,-344.79 674,-408 852.35,-627.15 1008.79,-749.55 890,-1005.92 700.19,-1415.56 687.72,-1220.06 555,-1285.92 543.88,-1291.43 531.7,-1296.33 519.63,-1300.58"/>
<polygon fill="#7f7f7f" stroke="#7f7f7f" points="518.33,-1297.33 509.99,-1303.86 520.58,-1303.96 518.33,-1297.33"/>
<text text-anchor="middle" x="949" y="-806.72" font-family="Helvetica,sans-Serif" font-size="9.00">Indietro</text>
</g>
<!-- salva -->
<g id="node32" class="node">
<title>salva</title>
<polygon fill="#fff4e5" stroke="black" points="542,-192 396,-192 396,-156 542,-156 542,-192"/>
<text text-anchor="middle" x="469" y="-177" font-family="Helvetica,sans-Serif" font-size="10.00">[Salva] &#160;→ download from</text>
<text text-anchor="middle" x="469" y="-166" font-family="Helvetica,sans-Serif" font-size="10.00">ConsultazioneRichieste.do</text>
</g>
<!-- ready&#45;&gt;salva -->
<g id="edge33" class="edge">
<title>ready&#45;&gt;salva</title>
<path fill="none" stroke="black" d="M469,-228.81C469,-220.79 469,-211.05 469,-202.07"/>
<polygon fill="black" stroke="black" points="472.5,-202.03 469,-192.03 465.5,-202.03 472.5,-202.03"/>
</g>
<!-- p7m -->
<g id="node33" class="node">
<title>p7m</title>
<polygon fill="#e6f4ea" stroke="black" points="585,-119 347,-119 347,-78 591,-78 591,-113 585,-119"/>
<polyline fill="none" stroke="black" points="585,-119 585,-113 "/>
<polyline fill="none" stroke="black" points="591,-113 585,-113 "/>
<text text-anchor="middle" x="469" y="-107" font-family="Helvetica,sans-Serif" font-size="10.00">DOC_&lt;idRichiesta&gt;.p7m</text>
<text text-anchor="middle" x="469" y="-96" font-family="Helvetica,sans-Serif" font-size="10.00">DER PKCS#7 Signed Data (CAdES)</text>
<text text-anchor="middle" x="469" y="-85" font-family="Helvetica,sans-Serif" font-size="10.00">payload = signed XML (Visure_SIT_ver1.0.xsd)</text>
</g>
<!-- salva&#45;&gt;p7m -->
<g id="edge34" class="edge">
<title>salva&#45;&gt;p7m</title>
<path fill="none" stroke="black" d="M469,-155.95C469,-148.03 469,-138.37 469,-129.29"/>
<polygon fill="black" stroke="black" points="472.5,-129.05 469,-119.05 465.5,-129.05 472.5,-129.05"/>
</g>
<!-- xml -->
<g id="node34" class="node">
<title>xml</title>
<polygon fill="#e6f4ea" stroke="black" points="573,-41 359,-41 359,0 579,0 579,-35 573,-41"/>
<polyline fill="none" stroke="black" points="573,-41 573,-35 "/>
<polyline fill="none" stroke="black" points="579,-35 573,-35 "/>
<text text-anchor="middle" x="469" y="-29" font-family="Helvetica,sans-Serif" font-size="10.00">extract XML:</text>
<text text-anchor="middle" x="469" y="-18" font-family="Helvetica,sans-Serif" font-size="10.00">openssl cms &#45;verify &#45;noverify &#45;inform DER</text>
<text text-anchor="middle" x="469" y="-7" font-family="Helvetica,sans-Serif" font-size="10.00">→ &lt;Visura&gt; (Fabbricato | Soggetto)</text>
</g>
<!-- p7m&#45;&gt;xml -->
<g id="edge35" class="edge">
<title>p7m&#45;&gt;xml</title>
<path fill="none" stroke="black" d="M469,-77.93C469,-69.77 469,-60.12 469,-51.13"/>
<polygon fill="black" stroke="black" points="472.5,-51.01 469,-41.01 465.5,-51.01 472.5,-51.01"/>
</g>
<!-- xml&#45;&gt;imm_loop -->
<g id="edge40" class="edge">
<title>xml&#45;&gt;imm_loop</title>
<path fill="none" stroke="#7f7f7f" stroke-dasharray="5,2" d="M548.51,-41.14C567.96,-49.52 586.92,-61.35 600,-78 686.89,-188.6 617.83,-253.82 653,-390 687.26,-522.66 709.53,-551.67 755,-680.92 867.72,-1001.33 878.54,-974.97 857,-1005.92 783.9,-1110.95 696.23,-1039.25 587,-1105.92 563,-1120.57 509.2,-1172.13 475.14,-1205.74"/>
<polygon fill="#7f7f7f" stroke="#7f7f7f" points="472.42,-1203.51 467.77,-1213.04 477.34,-1208.49 472.42,-1203.51"/>
<text text-anchor="middle" x="800" y="-653.72" font-family="Helvetica,sans-Serif" font-size="9.00">loop: next immobile</text>
<text text-anchor="middle" x="800" y="-643.72" font-family="Helvetica,sans-Serif" font-size="9.00">(unless extracted)</text>
</g>
<!-- back -->
<g id="node35" class="node">
<title>back</title>
<polygon fill="#eceff1" stroke="black" points="736.5,-2173.12 593.5,-2173.12 593.5,-2137.12 736.5,-2137.12 736.5,-2173.12"/>
<text text-anchor="middle" x="665" y="-2158.12" font-family="Helvetica,sans-Serif" font-size="10.00">[Indietro]</text>
<text text-anchor="middle" x="665" y="-2147.12" font-family="Helvetica,sans-Serif" font-size="10.00">step one level up the flow</text>
</g>
</g>
</svg>
